<svg width="104" height="104" viewBox="0 0 104 104" fill="none" xmlns="http://www.w3.org/2000/svg">
<path d="M52 103.75C44.9083 103.75 38.224 102.384 31.9469 99.6531C25.6698 96.9219 20.1833 93.2083 15.4875 88.5125C10.7917 83.8167 7.07812 78.3302 4.34687 72.0531C1.61563 65.776 0.25 59.0917 0.25 52C0.25 47.7833 0.729167 43.6865 1.6875 39.7094C2.64583 35.7323 4.03542 31.9948 5.85625 28.4969C7.67708 24.999 9.85729 21.7406 12.3969 18.7219C14.9365 15.7031 17.7875 12.9958 20.95 10.6L60.05 49.7L52 57.75L20.95 26.7C18.075 30.15 15.8229 34.0073 14.1937 38.2719C12.5646 42.5365 11.75 47.1125 11.75 52C11.75 63.1167 15.6792 72.6042 23.5375 80.4625C31.3958 88.3208 40.8833 92.25 52 92.25C63.1167 92.25 72.6042 88.3208 80.4625 80.4625C88.3208 72.6042 92.25 63.1167 92.25 52C92.25 41.7458 88.9677 32.9052 82.4031 25.4781C75.8385 18.051 67.6208 13.6667 57.75 12.325V23.25H46.25V0.25H52C59.0917 0.25 65.776 1.61563 72.0531 4.34687C78.3302 7.07812 83.8167 10.7917 88.5125 15.4875C93.2083 20.1833 96.9219 25.6698 99.6531 31.9469C102.384 38.224 103.75 44.9083 103.75 52C103.75 59.0917 102.384 65.776 99.6531 72.0531C96.9219 78.3302 93.2083 83.8167 88.5125 88.5125C83.8167 93.2083 78.3302 96.9219 72.0531 99.6531C65.776 102.384 59.0917 103.75 52 103.75ZM23.25 57.75C21.6208 57.75 20.2552 57.199 19.1531 56.0969C18.051 54.9948 17.5 53.6292 17.5 52C17.5 50.3708 18.051 49.0052 19.1531 47.9031C20.2552 46.801 21.6208 46.25 23.25 46.25C24.8792 46.25 26.2448 46.801 27.3469 47.9031C28.449 49.0052 29 50.3708 29 52C29 53.6292 28.449 54.9948 27.3469 56.0969C26.2448 57.199 24.8792 57.75 23.25 57.75ZM52 86.5C50.3708 86.5 49.0052 85.949 47.9031 84.8469C46.801 83.7448 46.25 82.3792 46.25 80.75C46.25 79.1208 46.801 77.7552 47.9031 76.6531C49.0052 75.551 50.3708 75 52 75C53.6292 75 54.9948 75.551 56.0969 76.6531C57.199 77.7552 57.75 79.1208 57.75 80.75C57.75 82.3792 57.199 83.7448 56.0969 84.8469C54.9948 85.949 53.6292 86.5 52 86.5ZM80.75 57.75C79.1208 57.75 77.7552 57.199 76.6531 56.0969C75.551 54.9948 75 53.6292 75 52C75 50.3708 75.551 49.0052 76.6531 47.9031C77.7552 46.801 79.1208 46.25 80.75 46.25C82.3792 46.25 83.7448 46.801 84.8469 47.9031C85.949 49.0052 86.5 50.3708 86.5 52C86.5 53.6292 85.949 54.9948 84.8469 56.0969C83.7448 57.199 82.3792 57.75 80.75 57.75Z" fill="black"/>
</svg>
